<?xml version="1.0" encoding="UTF-8"?><svg id="Layer_2" xmlns="http://www.w3.org/2000/svg" viewBox="0 0 430.46 376"><defs><style>.cls-1{fill:#e24c2c;stroke:#e24c2c;stroke-miterlimit:10;stroke-width:5px;}</style></defs><g id="Layer_1-2"><path class="cls-1" d="m139.57,271.98c-.29-.14-.52-.38-.64-.69l-9-22.98c-.14-.36-.11-.76.07-1.1l48.96-87.81c.28-.5.85-.75,1.4-.63.55.12.96.59,1.01,1.16l5.37,71.03c.03.4-.13.8-.43,1.07l-45.33,39.76c-.32.28-.75.38-1.15.28-.09-.02-.17-.05-.25-.09Zm-7.03-24.04l8.11,20.71,43.47-38.12-5-66.12-46.58,83.54Z"/><path class="cls-1" d="m292.2,273.76s-.08-.06-.12-.1l-43.84-41.4c-.29-.28-.44-.68-.4-1.08l7.99-70.79c.06-.56.49-1.02,1.05-1.12.56-.1,1.12.18,1.38.68l45.69,89.56c.17.34.19.75.03,1.1l-9.85,22.63c-.17.38-.51.66-.92.75-.36.07-.73-.01-1.02-.23Zm-41.72-42.93l42.04,39.7,8.87-20.39-43.47-85.2-7.44,65.9Z"/><path class="cls-1" d="m185.03,242.24c-.35-.21-.59-.58-.62-1.01l-8.02-115.62c-3.33-47.97,12.97-92.71,44.73-122.75.25-.24.59-.36.93-.35.34.01.67.17.9.42l.15.16c30.01,32.8,44.36,77.15,39.37,121.66l-13.21,117.85c-.07.66-.64,1.16-1.31,1.14l-62.29-1.32c-.23,0-.45-.07-.64-.19ZM221.94,5.63c-30.57,29.5-46.22,73.08-42.98,119.79l7.94,114.45,59.94,1.27,13.08-116.68c4.86-43.41-8.97-86.65-37.98-118.83Z"/><path class="cls-1" d="m210.42,122.52c-5.35-3.24-8.88-9.18-8.74-15.87h0c.21-9.98,8.5-17.92,18.48-17.71,9.98.21,17.92,8.5,17.71,18.48-.1,4.83-2.08,9.34-5.57,12.68-3.49,3.34-8.07,5.13-12.91,5.03-3.28-.07-6.34-1.01-8.97-2.6Zm-6.17-15.82c-.09,4.14,1.44,8.08,4.31,11.07,2.87,2.99,6.73,4.69,10.88,4.78,4.14.09,8.08-1.44,11.07-4.31,2.99-2.87,4.69-6.73,4.78-10.88.18-8.56-6.63-15.66-15.19-15.85-8.56-.18-15.67,6.63-15.85,15.19h0Z"/><path class="cls-1" d="m189.48,260.25c-.38-.23-.63-.65-.62-1.13l.38-17.91c0-.34.15-.67.4-.9.25-.24.58-.36.92-.36l51.91,1.1c.71.01,1.28.6,1.26,1.31l-.38,17.91c0,.34-.15.67-.4.9-.25.24-.58.37-.92.36l-51.91-1.1c-.23,0-.45-.07-.64-.19Zm2.31-17.7l-.32,15.33,49.33,1.04.32-15.33-49.33-1.04Z"/><path class="cls-1" d="m185.34,61.71c-.13-.08-.21-.22-.21-.38,0-.24.2-.43.44-.42l70.63,1.5c.24,0,.42.2.42.44,0,.24-.2.43-.44.42l-70.63-1.5c-.08,0-.15-.02-.21-.06Z"/><path class="cls-1" d="m256.19,63.76h-.02l-70.63-1.5c-.16,0-.32-.05-.46-.13h0c-.29-.17-.46-.49-.45-.82,0-.24.1-.47.28-.64.18-.17.42-.27.66-.26l70.63,1.5c.25,0,.48.1.65.28.17.18.27.42.26.67,0,.25-.11.48-.29.65-.17.17-.4.26-.64.26Z"/><path class="cls-1" d="m213.85,356.31c-.38-.23-.63-.65-.62-1.13l1.64-77.26c.02-.71.6-1.28,1.31-1.26.71.01,1.28.6,1.26,1.31l-1.64,77.26c-.01.71-.6,1.28-1.31,1.26-.23,0-.45-.07-.64-.19Z"/><path class="cls-1" d="m236.44,323.05c-.38-.23-.63-.65-.62-1.13l.92-43.53c.02-.71.6-1.28,1.31-1.26.71.01,1.28.6,1.26,1.31l-.92,43.53c-.02.71-.6,1.28-1.31,1.26-.23,0-.45-.07-.64-.19Z"/><path class="cls-1" d="m236.01,343.26c-.38-.23-.63-.65-.62-1.13l.2-9.33c.02-.71.6-1.28,1.31-1.26.71.01,1.28.6,1.26,1.31l-.2,9.33c-.02.71-.6,1.28-1.31,1.26-.23,0-.45-.07-.64-.19Z"/><path class="cls-1" d="m192.37,337.67c-.38-.23-.63-.65-.62-1.13l1.25-59.08c.02-.71.6-1.28,1.31-1.26.71.01,1.28.6,1.26,1.31l-1.25,59.08c-.02.71-.6,1.28-1.31,1.26-.23,0-.45-.07-.64-.19Z"/><path class="cls-1" d="m4.5,373.5c-.51,0-1.02-.19-1.41-.58-.78-.78-.79-2.05,0-2.83.41-.41,10.16-10.11,27.18-18.55,15.51-7.69,40.14-15.66,69.87-10.28,2.42-2.97,10.34-11.85,23.56-18.88,14.56-7.74,38.51-14.52,69.96-2.84,1.04.38,1.56,1.54,1.18,2.57-.38,1.04-1.54,1.56-2.57,1.18-24.07-8.93-46.45-8.08-66.54,2.54-15.03,7.95-23.08,18.7-23.16,18.81-.46.62-1.23.92-1.99.78-55.85-10.72-94.28,27.12-94.67,27.5-.39.39-.9.59-1.42.59Z"/><path class="cls-1" d="m425.96,373.5c-.51,0-1.03-.2-1.42-.59-.38-.38-38.89-38.22-94.67-27.5-.75.15-1.53-.16-1.99-.78-.08-.11-8.13-10.86-23.16-18.81-20.08-10.62-42.47-11.47-66.54-2.54-1.04.38-2.19-.14-2.57-1.18-.38-1.04.14-2.19,1.18-2.57,31.45-11.67,55.41-4.9,69.96,2.84,13.22,7.03,21.14,15.91,23.56,18.88,29.74-5.37,54.36,2.59,69.87,10.28,17.02,8.44,26.77,18.14,27.18,18.55.78.78.78,2.05,0,2.83-.39.39-.9.58-1.41.58Z"/></g></svg>