<?xml version="1.0" encoding="UTF-8"?><svg id="Layer_2" xmlns="http://www.w3.org/2000/svg" viewBox="0 0 334.2 346"><defs><style>.cls-1{fill:#e24c2c;}</style></defs><g id="Layer_1-2"><path class="cls-1" d="m307.75,182.82c-2.21-3.28-4.55-6.55-6.99-9.82,2.45-3.27,4.78-6.54,6.99-9.82,16.68-24.72,25.81-48.39,26.42-68.47.5-16.67-5.05-30.63-16.05-40.36-6.84-6.06-15.58-10.37-25.89-12.93,0-.1.02-.2.02-.31,0-6.79-5.5-12.29-12.29-12.29-5.94,0-10.9,4.21-12.04,9.82-10.31-.03-21.56,1.16-33.61,3.59C215.39,14.9,191.54,0,166.31,0c-.09,0-.19,0-.28,0-18.77.08-37.08,8.6-52.95,24.64-5.05,5.1-9.8,10.93-14.23,17.38-36.43-7.17-65.54-2.91-82.77,12.33C5.08,64.08-.47,78.04.03,94.71c.61,20.08,9.74,43.76,26.42,68.47,2.21,3.28,4.55,6.55,6.99,9.82-2.45,3.27-4.78,6.54-6.99,9.82C9.77,207.54.64,231.21.03,251.29c-.5,16.67,5.05,30.63,16.05,40.36,8.95,7.92,21.11,12.87,35.84,14.79.48,6.35,5.77,11.35,12.24,11.35s11.44-4.7,12.19-10.77c7.44-.51,15.31-1.59,23.55-3.26,18.91,27.33,42.77,42.23,68,42.23.09,0,.18,0,.28,0,18.77-.08,37.08-8.6,52.95-24.64,5.05-5.1,9.8-10.93,14.23-17.38,11.5,2.26,22.27,3.39,32.17,3.39,21.46,0,38.81-5.29,50.6-15.72,11.01-9.74,16.56-23.7,16.05-40.36-.61-20.08-9.74-43.76-26.42-68.47Zm-40.32-139.68c.14,0,.28,0,.42,0,.97,5.81,6.02,10.25,12.11,10.25,5.11,0,9.48-3.11,11.34-7.55,9.39,2.37,17.45,6.31,23.79,11.92,10.1,8.93,14.98,21.32,14.51,36.8-.58,19.22-9.45,42.06-25.64,66.05-1.93,2.87-3.97,5.73-6.09,8.59-8.7-11.2-18.72-22.3-29.85-33.06-4.28-32.11-13.93-61.6-28.19-85.35-.92-1.54-1.87-3.04-2.82-4.51,10.74-2.07,20.96-3.15,30.42-3.15Zm-32.45,189.36c-22,17.21-45.12,31.6-67.87,42.78-22.76-11.19-45.88-25.57-67.89-42.78-10.2-7.98-19.8-16.3-28.71-24.84-1.42-11.06-2.2-22.51-2.27-34.24-.07-11.8.61-23.44,1.96-34.78,9-8.64,18.71-17.07,29.02-25.14,22.01-17.22,45.12-31.59,67.88-42.78,22.76,11.19,45.87,25.57,67.88,42.78,10.2,7.98,19.8,16.3,28.71,24.84,1.42,11.06,2.2,22.51,2.27,34.24.07,11.8-.61,23.44-1.96,34.78-9,8.64-18.71,17.07-29.02,25.14Zm28.07-17.93c-4.75,32.45-15.15,61.96-29.83,84.38-19.11-4.05-39.79-11.2-60.89-21.14,22.36-11.26,44.57-25.36,65.47-41.7,8.88-6.95,17.32-14.15,25.25-21.54Zm-101.17,63.24c-20.72,9.77-41.05,16.84-59.88,20.93-14.54-21.92-25.34-50.94-30.45-83.81,7.82,7.26,16.13,14.35,24.86,21.18,20.89,16.34,43.11,30.44,65.47,41.7Zm-96.58-75.23c-9.68-9.67-18.43-19.58-26.11-29.57,7.6-9.89,16.26-19.71,25.83-29.3-.95,9.79-1.42,19.74-1.36,29.74.06,9.86.61,19.59,1.63,29.12Zm31.1-92.67c-8.88,6.95-17.32,14.15-25.25,21.54,4.75-32.45,15.15-61.96,29.83-84.38,19.11,4.05,39.79,11.2,60.89,21.14-22.36,11.26-44.57,25.36-65.47,41.7Zm75.93-41.7c20.72-9.77,41.05-16.83,59.88-20.92,14.54,21.92,25.33,50.93,30.45,83.8-7.82-7.26-16.13-14.35-24.86-21.18-20.89-16.34-43.1-30.44-65.47-41.7Zm96.57,75.23c9.68,9.67,18.43,19.58,26.11,29.57-7.6,9.89-16.26,19.71-25.83,29.3.95-9.79,1.42-19.74,1.36-29.74-.06-9.86-.61-19.59-1.63-29.12ZM116.33,27.85c15-15.15,32.19-23.21,49.72-23.28.09,0,.17,0,.25,0,23.9,0,45.92,14.54,63.15,38.69-2.05.46-4.11.95-6.2,1.48-18.29,4.65-37.25,11.73-56.16,20.87-18.91-9.14-37.86-16.22-56.16-20.87-2.44-.62-4.84-1.19-7.22-1.71,3.93-5.57,8.14-10.66,12.61-15.18ZM30.24,160.62C14.05,136.63,5.18,113.78,4.6,94.57c-.47-15.48,4.41-27.87,14.51-36.8,11.22-9.93,27.77-14.63,47.66-14.63,9.15,0,19.02,1.01,29.38,2.95-7.57,11.84-14.08,25.58-19.21,40.75-5.24,15.47-8.97,32.25-11.12,49.65-10.99,10.65-20.89,21.64-29.49,32.71-2.12-2.86-4.16-5.73-6.09-8.59Zm45.84,141.91c-1.33-5.35-6.15-9.31-11.91-9.31s-10.23,3.68-11.76,8.73c-13.52-1.8-24.9-6.29-33.29-13.71-10.1-8.93-14.98-21.32-14.51-36.8.58-19.22,9.45-42.06,25.64-66.06,1.93-2.87,3.97-5.73,6.09-8.59,8.7,11.2,18.72,22.3,29.85,33.06,4.28,32.11,13.93,61.6,28.19,85.35.93,1.54,1.87,3.04,2.82,4.52-7.31,1.41-14.37,2.36-21.12,2.82Zm141.8,15.61c-15,15.16-32.19,23.21-49.72,23.28h-.25c-23.9,0-45.92-14.53-63.15-38.69,2.05-.46,4.11-.95,6.2-1.49,18.29-4.65,37.24-11.73,56.16-20.87,18.91,9.14,37.86,16.22,56.16,20.87,2.44.62,4.84,1.18,7.23,1.7-3.93,5.57-8.14,10.67-12.61,15.19Zm97.22-29.91c-11.22,9.93-27.77,14.63-47.66,14.63-9.15,0-19.02-1.01-29.38-2.95,7.57-11.84,14.08-25.58,19.21-40.75,5.23-15.47,8.97-32.25,11.12-49.65,10.99-10.65,20.89-21.64,29.49-32.72,2.12,2.86,4.16,5.73,6.09,8.59,16.19,24,25.06,46.84,25.64,66.06.47,15.48-4.41,27.87-14.51,36.8Z"/></g></svg>