<?xml version="1.0" encoding="UTF-8"?><svg id="Layer_2" xmlns="http://www.w3.org/2000/svg" viewBox="0 0 1620 166.07"><defs><style>.cls-1{fill:#fff;}</style></defs><g id="Layer_1-2"><path class="cls-1" d="m141.43,165.63l-37.08-89.75-41.61,90.18L0,6.47h29.32l36.65,100.96,26.09-63.01-15.09-37.94h24.79l40.32,97.94L175.7,6.47h26.95l-61.23,159.17Z"/><path class="cls-1" d="m221.19,44.3c7.18-12.29,16.92-22.1,29.21-29.43,12.29-7.33,25.69-10.99,40.21-10.99s27.7,3.66,39.99,10.99c12.29,7.33,22.1,17.18,29.43,29.54,7.33,12.36,10.99,25.65,10.99,39.88s-3.63,27.89-10.89,40.1c-7.26,12.22-17.07,21.92-29.43,29.1-12.36,7.19-25.73,10.78-40.1,10.78s-27.92-3.56-40.21-10.67c-12.29-7.11-22.03-16.78-29.21-29-7.19-12.21-10.78-25.65-10.78-40.32s3.59-27.7,10.78-39.99Zm22.42,68.02c4.88,8.48,11.53,15.24,19.94,20.27,8.41,5.03,17.64,7.55,27.7,7.55s18.97-2.48,27.16-7.44c8.19-4.96,14.69-11.71,19.51-20.26,4.81-8.55,7.22-17.93,7.22-28.13s-2.45-19.62-7.33-28.24c-4.89-8.62-11.5-15.45-19.83-20.48-8.34-5.03-17.46-7.55-27.38-7.55s-19.22,2.52-27.49,7.55c-8.27,5.03-14.81,11.86-19.62,20.48-4.82,8.62-7.22,18.04-7.22,28.24s2.44,19.55,7.33,28.03Z"/><path class="cls-1" d="m490.24,162.55l-35.36-54.54h-25.22v54.54h-25.22V5.61h44.19c17.53,0,31.58,4.46,42.15,13.37,10.56,8.91,15.85,21.27,15.85,37.08,0,9.63-2.05,18.58-6.14,26.84-4.1,8.27-10.53,14.63-19.3,19.08l38.16,60.58h-29.1Zm-60.58-78.69h22.42c10.06,0,17.35-2.77,21.88-8.3,4.53-5.53,6.79-11.75,6.79-18.65,0-4.02-.86-8.08-2.59-12.18-1.73-4.1-4.67-7.62-8.84-10.56-4.17-2.94-9.63-4.42-16.39-4.42h-23.28v54.11Z"/><path class="cls-1" d="m573.68,73.73l3.45-4.96,59.07-63.17h32.34l-64.89,68.56,67.26,88.39h-31.91l-53.68-72.44-11,10.78v61.66h-25.44V5.61h25.44v60.15l-.65,7.98Z"/><path class="cls-1" d="m1032.01,162.55h-25.22v-66.83h-77.18v66.83h-25.22V5.61h25.22v66.19h77.18V5.61h25.22v156.95Z"/><path class="cls-1" d="m1076.2,44.3c7.18-12.29,16.92-22.1,29.21-29.43,12.29-7.33,25.69-10.99,40.21-10.99s27.7,3.66,39.99,10.99c12.29,7.33,22.1,17.18,29.43,29.54,7.33,12.36,10.99,25.65,10.99,39.88s-3.63,27.89-10.89,40.1c-7.26,12.22-17.07,21.92-29.43,29.1-12.36,7.19-25.73,10.78-40.1,10.78s-27.92-3.56-40.21-10.67c-12.29-7.11-22.03-16.78-29.21-29-7.19-12.21-10.78-25.65-10.78-40.32s3.59-27.7,10.78-39.99Zm22.42,68.02c4.88,8.48,11.53,15.24,19.94,20.27,8.41,5.03,17.64,7.55,27.7,7.55s18.97-2.48,27.16-7.44c8.19-4.96,14.69-11.71,19.51-20.26,4.81-8.55,7.22-17.93,7.22-28.13s-2.45-19.62-7.33-28.24c-4.89-8.62-11.5-15.45-19.83-20.48-8.34-5.03-17.46-7.55-27.38-7.55s-19.22,2.52-27.49,7.55c-8.27,5.03-14.81,11.86-19.62,20.48-4.82,8.62-7.22,18.04-7.22,28.24s2.44,19.55,7.33,28.03Z"/><path class="cls-1" d="m1417.91,6.47v156.09h-25.01V59.24l-54.98,54.47h-.43l-53.68-54.51v103.36h-24.36V6.47h.22l78.26,71.26,79.55-71.26h.43Z"/><path class="cls-1" d="m1565.15,5.61v24.15h-78.9v41.82h70.28v24.15h-70.28v42.69h78.94v24.15h-104.16V5.61h104.13Z"/><path class="cls-1" d="m1582.23,29.75h-5.12V9.87h-6.56v-4.26h18.23v4.26h-6.56v19.88Z"/><path class="cls-1" d="m1604.41,29.75l-5.81-18.94h-.15c.21,3.85.31,6.42.31,7.71v11.23h-4.58V5.61h6.97l5.71,18.46h.1l6.06-18.46h6.97v24.14h-4.77v-11.43c0-.54,0-1.16.02-1.87.02-.7.09-2.58.22-5.61h-.15l-6.23,18.91h-4.69Z"/><polygon class="cls-1" points="781.92 0 700.26 29.51 700.26 29.51 700.26 162.55 862.82 162.55 862.82 29.51 862.82 29.51 781.92 0"/></g></svg>