<?xml version="1.0" encoding="UTF-8"?><svg id="Layer_2" xmlns="http://www.w3.org/2000/svg" viewBox="0 0 422.83 347.4"><defs><style>.cls-1{fill:#e24c2c;}</style></defs><g id="Layer_1-2"><path class="cls-1" d="m305.69,347.4c-2.21,0-4-1.79-4-4v-37.71c0-39.38-32.04-71.42-71.42-71.42H79.42c-39.38,0-71.42,32.04-71.42,71.42v37.71c0,2.21-1.79,4-4,4s-4-1.79-4-4v-37.71c0-43.79,35.63-79.42,79.42-79.42h150.85c43.79,0,79.42,35.63,79.42,79.42v37.71c0,2.21-1.79,4-4,4Z"/><path class="cls-1" d="m154.85,158.85c-43.79,0-79.42-35.63-79.42-79.42S111.05,0,154.85,0s79.42,35.63,79.42,79.42-35.63,79.42-79.42,79.42Zm0-150.85c-39.38,0-71.42,32.04-71.42,71.42s32.04,71.42,71.42,71.42,71.42-32.04,71.42-71.42S194.23,8,154.85,8Z"/><path class="cls-1" d="m418.83,347.4c-2.21,0-4-1.79-4-4v-37.71c-.02-32.55-22.05-60.96-53.57-69.1-2.14-.55-3.42-2.73-2.87-4.87.55-2.14,2.74-3.43,4.87-2.87,35.05,9.05,59.54,40.65,59.57,76.84v37.71c0,2.21-1.79,4-4,4Z"/><path class="cls-1" d="m286.83,156.58c-1.78,0-3.41-1.2-3.87-3.01-.55-2.14.74-4.32,2.88-4.87,25.28-6.47,45-26.2,51.48-51.48,9.77-38.15-13.32-77.14-51.48-86.91-2.14-.55-3.43-2.73-2.88-4.87.55-2.14,2.73-3.43,4.87-2.88,42.43,10.86,68.1,54.22,57.24,96.64-7.2,28.11-29.13,50.04-57.24,57.24-.33.08-.67.13-1,.13Z"/></g></svg>